<svg xmlns="http://www.w3.org/2000/svg" xmlns:xlink="http://www.w3.org/1999/xlink" width="200" zoomAndPan="magnify" viewBox="0 0 150 30.000001" height="40" preserveAspectRatio="xMidYMid meet" version="1.0"><defs><g/></defs><g fill="#000000" fill-opacity="1"><g transform="translate(7.62441, 23.773995)"><g><path d="M 15.863281 -15.941406 L 13.714844 -15.941406 C 13.542969 -15.941406 13.308594 -15.882812 13.152344 -15.589844 L 8.898438 -7.835938 L 4.679688 -15.570312 C 4.527344 -15.882812 4.292969 -15.941406 4.121094 -15.941406 L 1.914062 -15.941406 C 1.742188 -15.941406 1.605469 -15.84375 1.566406 -15.667969 C 1.527344 -15.535156 1.546875 -15.378906 1.625 -15.242188 L 7.429688 -4.894531 L 7.429688 -0.65625 C 7.429688 -0.0585938 7.816406 0 7.96875 0 L 9.75 0 C 9.902344 0 10.292969 -0.0585938 10.292969 -0.65625 L 10.292969 -4.894531 L 16.152344 -15.242188 C 16.230469 -15.378906 16.25 -15.535156 16.210938 -15.6875 C 16.152344 -15.84375 16.015625 -15.941406 15.863281 -15.941406 Z M 15.863281 -15.941406 "/></g></g></g><g fill="#000000" fill-opacity="1"><g transform="translate(23.99315, 23.773995)"><g><path d="M 14.722656 -14.527344 C 14.335938 -15.011719 13.832031 -15.378906 13.210938 -15.609375 C 12.613281 -15.824219 11.878906 -15.941406 11.027344 -15.941406 L 6.304688 -15.941406 C 5.457031 -15.941406 4.738281 -15.824219 4.140625 -15.609375 C 3.519531 -15.378906 3.019531 -15.011719 2.628906 -14.527344 C 2.261719 -14.042969 1.972656 -13.40625 1.800781 -12.632812 C 1.625 -11.878906 1.546875 -10.96875 1.546875 -9.886719 L 1.546875 -6.054688 C 1.546875 -4.972656 1.625 -4.042969 1.800781 -3.289062 C 1.972656 -2.515625 2.261719 -1.875 2.628906 -1.394531 C 3.019531 -0.890625 3.519531 -0.523438 4.140625 -0.308594 C 4.71875 -0.0976562 5.457031 0.0195312 6.304688 0.0195312 L 11.027344 0.0195312 C 11.878906 0.0195312 12.613281 -0.0976562 13.210938 -0.308594 C 13.832031 -0.523438 14.335938 -0.890625 14.722656 -1.375 C 15.109375 -1.875 15.378906 -2.515625 15.554688 -3.289062 C 15.707031 -4.042969 15.804688 -4.972656 15.804688 -6.054688 L 15.804688 -9.886719 C 15.804688 -10.949219 15.707031 -11.878906 15.554688 -12.632812 C 15.378906 -13.40625 15.109375 -14.042969 14.722656 -14.527344 Z M 12.921875 -10.214844 L 12.921875 -5.707031 C 12.921875 -5.144531 12.902344 -4.660156 12.824219 -4.273438 C 12.765625 -3.925781 12.652344 -3.617188 12.496094 -3.425781 C 12.359375 -3.210938 12.167969 -3.074219 11.917969 -3 C 11.664062 -2.902344 11.335938 -2.863281 10.929688 -2.863281 L 6.402344 -2.863281 C 5.996094 -2.863281 5.667969 -2.902344 5.417969 -3 C 5.164062 -3.074219 4.972656 -3.210938 4.835938 -3.425781 C 4.679688 -3.617188 4.585938 -3.925781 4.507812 -4.273438 C 4.449219 -4.660156 4.410156 -5.144531 4.410156 -5.707031 L 4.410156 -10.214844 C 4.410156 -10.773438 4.449219 -11.257812 4.507812 -11.644531 C 4.585938 -12.011719 4.679688 -12.304688 4.835938 -12.515625 C 4.972656 -12.710938 5.164062 -12.84375 5.417969 -12.941406 C 5.667969 -13.019531 5.996094 -13.078125 6.402344 -13.078125 L 10.929688 -13.078125 C 11.335938 -13.078125 11.664062 -13.019531 11.917969 -12.941406 C 12.167969 -12.84375 12.359375 -12.710938 12.496094 -12.515625 C 12.652344 -12.304688 12.765625 -12.011719 12.824219 -11.644531 C 12.902344 -11.257812 12.921875 -10.773438 12.921875 -10.214844 Z M 12.921875 -10.214844 "/></g></g></g><g fill="#000000" fill-opacity="1"><g transform="translate(39.93666, 23.773995)"><g><path d="M 14.914062 -15.941406 L 13.136719 -15.941406 C 12.960938 -15.941406 12.59375 -15.882812 12.59375 -15.28125 L 12.59375 -5.746094 C 12.59375 -5.164062 12.554688 -4.660156 12.496094 -4.292969 C 12.4375 -3.925781 12.324219 -3.636719 12.1875 -3.425781 C 12.03125 -3.230469 11.859375 -3.09375 11.605469 -3 C 11.355469 -2.921875 11.007812 -2.863281 10.601562 -2.863281 L 6.421875 -2.863281 C 6.015625 -2.863281 5.667969 -2.921875 5.417969 -3 C 5.164062 -3.09375 4.992188 -3.230469 4.835938 -3.425781 C 4.699219 -3.636719 4.585938 -3.925781 4.507812 -4.292969 C 4.449219 -4.660156 4.410156 -5.164062 4.410156 -5.746094 L 4.410156 -15.28125 C 4.410156 -15.882812 4.042969 -15.941406 3.867188 -15.941406 L 2.109375 -15.941406 C 1.933594 -15.941406 1.546875 -15.882812 1.546875 -15.28125 L 1.546875 -6.054688 C 1.546875 -4.972656 1.625 -4.042969 1.800781 -3.289062 C 1.972656 -2.515625 2.261719 -1.875 2.648438 -1.394531 C 3.019531 -0.890625 3.539062 -0.542969 4.140625 -0.308594 C 4.738281 -0.0976562 5.472656 0 6.324219 0 L 10.679688 0 C 11.527344 0 12.265625 -0.0976562 12.863281 -0.308594 C 13.484375 -0.542969 13.984375 -0.890625 14.371094 -1.394531 C 14.757812 -1.875 15.03125 -2.515625 15.203125 -3.289062 C 15.378906 -4.042969 15.457031 -4.972656 15.457031 -6.054688 L 15.457031 -15.28125 C 15.457031 -15.882812 15.089844 -15.941406 14.914062 -15.941406 Z M 14.914062 -15.941406 "/></g></g></g><g fill="#000000" fill-opacity="1"><g transform="translate(55.532273, 23.773995)"><g><path d="M 14.742188 -11.316406 C 14.742188 -11.296875 14.742188 -11.277344 14.742188 -11.257812 C 14.742188 -11.238281 14.742188 -11.21875 14.742188 -11.199219 Z M 15.109375 -0.832031 L 11.722656 -6.636719 C 12.671875 -6.75 13.40625 -7.15625 13.890625 -7.816406 C 14.429688 -8.609375 14.722656 -9.75 14.742188 -11.257812 C 14.722656 -12.765625 14.429688 -13.910156 13.890625 -14.703125 C 13.308594 -15.535156 12.339844 -15.941406 11.027344 -15.941406 L 2.109375 -15.941406 C 1.933594 -15.941406 1.546875 -15.882812 1.546875 -15.261719 L 1.546875 -13.734375 C 1.546875 -13.136719 1.933594 -13.078125 2.109375 -13.078125 L 10.523438 -13.078125 C 11.027344 -13.078125 11.355469 -12.941406 11.546875 -12.652344 C 11.761719 -12.359375 11.859375 -11.898438 11.859375 -11.257812 C 11.859375 -10.621094 11.761719 -10.15625 11.546875 -9.867188 C 11.355469 -9.574219 11.027344 -9.441406 10.523438 -9.441406 L 2.109375 -9.441406 C 1.933594 -9.441406 1.546875 -9.382812 1.546875 -8.78125 L 1.546875 -0.65625 C 1.546875 -0.0585938 1.933594 0.0195312 2.109375 0.0195312 L 3.867188 0.0195312 C 4.042969 0.0195312 4.410156 -0.0585938 4.410156 -0.65625 L 4.410156 -6.578125 L 8.492188 -6.578125 L 11.992188 -0.367188 C 12.070312 -0.25 12.128906 -0.15625 12.207031 -0.0976562 C 12.304688 -0.0195312 12.4375 0.0195312 12.613281 0.0195312 L 14.742188 0.0195312 C 14.972656 0.0195312 15.148438 -0.136719 15.183594 -0.367188 C 15.203125 -0.5625 15.183594 -0.714844 15.109375 -0.832031 Z M 15.109375 -0.832031 "/></g></g></g><g fill="#000000" fill-opacity="1"><g transform="translate(70.876605, 23.773995)"><g/></g></g><g fill="#000000" fill-opacity="1"><g transform="translate(79.417324, 23.773995)"><g><path d="M 12.710938 -2.863281 L 6.421875 -2.863281 C 6.015625 -2.863281 5.6875 -2.902344 5.417969 -3 C 5.183594 -3.074219 4.992188 -3.210938 4.855469 -3.425781 C 4.699219 -3.636719 4.585938 -3.925781 4.527344 -4.273438 C 4.449219 -4.660156 4.429688 -5.144531 4.429688 -5.726562 L 4.429688 -15.261719 C 4.429688 -15.882812 4.042969 -15.941406 3.886719 -15.941406 L 2.109375 -15.941406 C 1.933594 -15.941406 1.546875 -15.882812 1.546875 -15.261719 L 1.546875 -6.054688 C 1.546875 -4.972656 1.644531 -4.042969 1.820312 -3.289062 C 1.992188 -2.515625 2.261719 -1.875 2.648438 -1.394531 C 3.035156 -0.890625 3.539062 -0.523438 4.160156 -0.308594 C 4.738281 -0.0976562 5.472656 0.0195312 6.324219 0.0195312 L 12.710938 0.0195312 C 12.882812 0.0195312 13.25 -0.0585938 13.25 -0.65625 L 13.25 -2.1875 C 13.25 -2.785156 12.882812 -2.863281 12.710938 -2.863281 Z M 12.710938 -2.863281 "/></g></g></g><g fill="#000000" fill-opacity="1"><g transform="translate(92.809487, 23.773995)"><g><path d="M 14.722656 -14.527344 C 14.335938 -15.011719 13.832031 -15.378906 13.210938 -15.609375 C 12.613281 -15.824219 11.878906 -15.941406 11.027344 -15.941406 L 6.304688 -15.941406 C 5.457031 -15.941406 4.738281 -15.824219 4.140625 -15.609375 C 3.519531 -15.378906 3.019531 -15.011719 2.628906 -14.527344 C 2.261719 -14.042969 1.972656 -13.40625 1.800781 -12.632812 C 1.625 -11.878906 1.546875 -10.96875 1.546875 -9.886719 L 1.546875 -6.054688 C 1.546875 -4.972656 1.625 -4.042969 1.800781 -3.289062 C 1.972656 -2.515625 2.261719 -1.875 2.628906 -1.394531 C 3.019531 -0.890625 3.519531 -0.523438 4.140625 -0.308594 C 4.71875 -0.0976562 5.457031 0.0195312 6.304688 0.0195312 L 11.027344 0.0195312 C 11.878906 0.0195312 12.613281 -0.0976562 13.210938 -0.308594 C 13.832031 -0.523438 14.335938 -0.890625 14.722656 -1.375 C 15.109375 -1.875 15.378906 -2.515625 15.554688 -3.289062 C 15.707031 -4.042969 15.804688 -4.972656 15.804688 -6.054688 L 15.804688 -9.886719 C 15.804688 -10.949219 15.707031 -11.878906 15.554688 -12.632812 C 15.378906 -13.40625 15.109375 -14.042969 14.722656 -14.527344 Z M 12.921875 -10.214844 L 12.921875 -5.707031 C 12.921875 -5.144531 12.902344 -4.660156 12.824219 -4.273438 C 12.765625 -3.925781 12.652344 -3.617188 12.496094 -3.425781 C 12.359375 -3.210938 12.167969 -3.074219 11.917969 -3 C 11.664062 -2.902344 11.335938 -2.863281 10.929688 -2.863281 L 6.402344 -2.863281 C 5.996094 -2.863281 5.667969 -2.902344 5.417969 -3 C 5.164062 -3.074219 4.972656 -3.210938 4.835938 -3.425781 C 4.679688 -3.617188 4.585938 -3.925781 4.507812 -4.273438 C 4.449219 -4.660156 4.410156 -5.144531 4.410156 -5.707031 L 4.410156 -10.214844 C 4.410156 -10.773438 4.449219 -11.257812 4.507812 -11.644531 C 4.585938 -12.011719 4.679688 -12.304688 4.835938 -12.515625 C 4.972656 -12.710938 5.164062 -12.84375 5.417969 -12.941406 C 5.667969 -13.019531 5.996094 -13.078125 6.402344 -13.078125 L 10.929688 -13.078125 C 11.335938 -13.078125 11.664062 -13.019531 11.917969 -12.941406 C 12.167969 -12.84375 12.359375 -12.710938 12.496094 -12.515625 C 12.652344 -12.304688 12.765625 -12.011719 12.824219 -11.644531 C 12.902344 -11.257812 12.921875 -10.773438 12.921875 -10.214844 Z M 12.921875 -10.214844 "/></g></g></g><g fill="#000000" fill-opacity="1"><g transform="translate(108.753, 23.773995)"><g><path d="M 14.644531 -15.941406 L 6.324219 -15.941406 C 5.472656 -15.941406 4.738281 -15.824219 4.140625 -15.609375 C 3.539062 -15.378906 3.019531 -15.011719 2.648438 -14.527344 C 2.261719 -14.023438 1.972656 -13.40625 1.800781 -12.632812 C 1.625 -11.878906 1.546875 -10.949219 1.546875 -9.886719 L 1.546875 -6.054688 C 1.546875 -4.972656 1.625 -4.042969 1.800781 -3.269531 C 1.972656 -2.515625 2.261719 -1.875 2.648438 -1.375 C 3.035156 -0.890625 3.539062 -0.523438 4.140625 -0.308594 C 4.738281 -0.0976562 5.472656 0.0195312 6.324219 0.0195312 L 12.941406 0.0195312 C 13.65625 0.0195312 14.21875 -0.269531 14.605469 -0.832031 C 14.972656 -1.375 15.164062 -2.28125 15.164062 -3.578125 L 15.164062 -8.761719 C 15.164062 -9.5 14.742188 -9.613281 14.488281 -9.613281 L 7.640625 -9.613281 C 7.484375 -9.613281 7.097656 -9.535156 7.097656 -8.917969 L 7.097656 -7.449219 C 7.097656 -6.808594 7.484375 -6.75 7.640625 -6.75 L 12.457031 -6.75 C 12.457031 -6.75 12.476562 -4.042969 12.476562 -4.042969 C 12.476562 -3.441406 12.378906 -3.191406 12.304688 -3.074219 C 12.207031 -2.921875 12.050781 -2.863281 11.839844 -2.863281 L 6.421875 -2.863281 C 6.015625 -2.863281 5.667969 -2.902344 5.417969 -3 C 5.164062 -3.074219 4.992188 -3.210938 4.835938 -3.425781 C 4.699219 -3.617188 4.585938 -3.90625 4.527344 -4.273438 C 4.449219 -4.660156 4.410156 -5.144531 4.410156 -5.726562 L 4.410156 -10.214844 C 4.410156 -10.792969 4.449219 -11.277344 4.527344 -11.664062 C 4.585938 -12.011719 4.699219 -12.304688 4.835938 -12.515625 C 4.992188 -12.710938 5.164062 -12.84375 5.417969 -12.941406 C 5.667969 -13.019531 6.015625 -13.078125 6.421875 -13.078125 L 14.644531 -13.078125 C 14.796875 -13.078125 15.183594 -13.136719 15.183594 -13.753906 L 15.183594 -15.261719 C 15.183594 -15.863281 14.796875 -15.941406 14.644531 -15.941406 Z M 14.644531 -15.941406 "/></g></g></g><g fill="#000000" fill-opacity="1"><g transform="translate(124.078003, 23.773995)"><g><path d="M 14.722656 -14.527344 C 14.335938 -15.011719 13.832031 -15.378906 13.210938 -15.609375 C 12.613281 -15.824219 11.878906 -15.941406 11.027344 -15.941406 L 6.304688 -15.941406 C 5.457031 -15.941406 4.738281 -15.824219 4.140625 -15.609375 C 3.519531 -15.378906 3.019531 -15.011719 2.628906 -14.527344 C 2.261719 -14.042969 1.972656 -13.40625 1.800781 -12.632812 C 1.625 -11.878906 1.546875 -10.96875 1.546875 -9.886719 L 1.546875 -6.054688 C 1.546875 -4.972656 1.625 -4.042969 1.800781 -3.289062 C 1.972656 -2.515625 2.261719 -1.875 2.628906 -1.394531 C 3.019531 -0.890625 3.519531 -0.523438 4.140625 -0.308594 C 4.71875 -0.0976562 5.457031 0.0195312 6.304688 0.0195312 L 11.027344 0.0195312 C 11.878906 0.0195312 12.613281 -0.0976562 13.210938 -0.308594 C 13.832031 -0.523438 14.335938 -0.890625 14.722656 -1.375 C 15.109375 -1.875 15.378906 -2.515625 15.554688 -3.289062 C 15.707031 -4.042969 15.804688 -4.972656 15.804688 -6.054688 L 15.804688 -9.886719 C 15.804688 -10.949219 15.707031 -11.878906 15.554688 -12.632812 C 15.378906 -13.40625 15.109375 -14.042969 14.722656 -14.527344 Z M 12.921875 -10.214844 L 12.921875 -5.707031 C 12.921875 -5.144531 12.902344 -4.660156 12.824219 -4.273438 C 12.765625 -3.925781 12.652344 -3.617188 12.496094 -3.425781 C 12.359375 -3.210938 12.167969 -3.074219 11.917969 -3 C 11.664062 -2.902344 11.335938 -2.863281 10.929688 -2.863281 L 6.402344 -2.863281 C 5.996094 -2.863281 5.667969 -2.902344 5.417969 -3 C 5.164062 -3.074219 4.972656 -3.210938 4.835938 -3.425781 C 4.679688 -3.617188 4.585938 -3.925781 4.507812 -4.273438 C 4.449219 -4.660156 4.410156 -5.144531 4.410156 -5.707031 L 4.410156 -10.214844 C 4.410156 -10.773438 4.449219 -11.257812 4.507812 -11.644531 C 4.585938 -12.011719 4.679688 -12.304688 4.835938 -12.515625 C 4.972656 -12.710938 5.164062 -12.84375 5.417969 -12.941406 C 5.667969 -13.019531 5.996094 -13.078125 6.402344 -13.078125 L 10.929688 -13.078125 C 11.335938 -13.078125 11.664062 -13.019531 11.917969 -12.941406 C 12.167969 -12.84375 12.359375 -12.710938 12.496094 -12.515625 C 12.652344 -12.304688 12.765625 -12.011719 12.824219 -11.644531 C 12.902344 -11.257812 12.921875 -10.773438 12.921875 -10.214844 Z M 12.921875 -10.214844 "/></g></g></g></svg>