<svg xmlns="http://www.w3.org/2000/svg" xmlns:xlink="http://www.w3.org/1999/xlink" width="100" zoomAndPan="magnify" viewBox="0 0 75 30.000001" height="40" preserveAspectRatio="xMidYMid meet" version="1.0"><defs><clipPath id="id1"><path d="M 4.160156 24.460938 L 9.953125 24.460938 L 9.953125 25.3125 L 4.160156 25.3125 Z M 4.160156 24.460938 " clip-rule="nonzero"/></clipPath><clipPath id="id2"><path d="M 4.160156 19.644531 L 5.101562 19.644531 L 5.101562 25.3125 L 4.160156 25.3125 Z M 4.160156 19.644531 " clip-rule="nonzero"/></clipPath><clipPath id="id3"><path d="M 24.820312 19.644531 L 25.761719 19.644531 L 25.761719 25.3125 L 24.820312 25.3125 Z M 24.820312 19.644531 " clip-rule="nonzero"/></clipPath><clipPath id="id4"><path d="M 20 24.460938 L 25.761719 24.460938 L 25.761719 25.3125 L 20 25.3125 Z M 20 24.460938 " clip-rule="nonzero"/></clipPath><clipPath id="id5"><path d="M 20 3.539062 L 26 3.539062 L 26 5 L 20 5 Z M 20 3.539062 " clip-rule="nonzero"/></clipPath><clipPath id="id6"><path d="M 24 3.539062 L 26 3.539062 L 26 10 L 24 10 Z M 24 3.539062 " clip-rule="nonzero"/></clipPath><clipPath id="id7"><path d="M 4.113281 3.539062 L 6 3.539062 L 6 10 L 4.113281 10 Z M 4.113281 3.539062 " clip-rule="nonzero"/></clipPath><clipPath id="id8"><path d="M 4.113281 3.539062 L 10 3.539062 L 10 5 L 4.113281 5 Z M 4.113281 3.539062 " clip-rule="nonzero"/></clipPath><clipPath id="id9"><path d="M 59 3.539062 L 70.886719 3.539062 L 70.886719 25.3125 L 59 25.3125 Z M 59 3.539062 " clip-rule="nonzero"/></clipPath><clipPath id="id10"><path d="M 29 3.539062 L 35 3.539062 L 35 11 L 29 11 Z M 29 3.539062 " clip-rule="nonzero"/></clipPath><clipPath id="id11"><path d="M 35 3.539062 L 42 3.539062 L 42 11 L 35 11 Z M 35 3.539062 " clip-rule="nonzero"/></clipPath><clipPath id="id12"><path d="M 42 3.539062 L 50 3.539062 L 50 11 L 42 11 Z M 42 3.539062 " clip-rule="nonzero"/></clipPath><clipPath id="id13"><path d="M 50 3.539062 L 56 3.539062 L 56 11 L 50 11 Z M 50 3.539062 " clip-rule="nonzero"/></clipPath><clipPath id="id14"><path d="M 29 12 L 44 12 L 44 25.3125 L 29 25.3125 Z M 29 12 " clip-rule="nonzero"/></clipPath><clipPath id="id15"><path d="M 46 12 L 57 12 L 57 25.3125 L 46 25.3125 Z M 46 12 " clip-rule="nonzero"/></clipPath></defs><path fill="#505adc" d="M 10.878906 6.628906 L 10.878906 10.667969 L 6.808594 10.667969 L 6.808594 6.628906 Z M 11.746094 5.765625 L 5.941406 5.765625 L 5.941406 11.527344 L 11.746094 11.527344 L 11.746094 5.765625 " fill-opacity="1" fill-rule="nonzero"/><path fill="#505adc" d="M 10.101562 7.398438 L 7.585938 7.398438 L 7.585938 9.894531 L 10.101562 9.894531 L 10.101562 7.398438 " fill-opacity="1" fill-rule="nonzero"/><path fill="#505adc" d="M 10.25 19.308594 L 7.648438 19.308594 L 7.648438 21.890625 L 10.25 21.890625 L 10.25 19.308594 " fill-opacity="1" fill-rule="nonzero"/><path fill="#505adc" d="M 23.03125 6.628906 L 23.03125 10.675781 L 18.953125 10.675781 L 18.953125 6.628906 Z M 18.082031 5.765625 L 18.082031 11.535156 L 23.898438 11.535156 L 23.898438 5.765625 L 18.082031 5.765625 " fill-opacity="1" fill-rule="nonzero"/><path fill="#505adc" d="M 22.25 7.402344 L 19.730469 7.402344 L 19.730469 9.902344 L 22.25 9.902344 L 22.25 7.402344 " fill-opacity="1" fill-rule="nonzero"/><path fill="#505adc" d="M 14.515625 8.351562 L 16.175781 8.351562 L 16.175781 10 L 14.515625 10 Z M 15.367188 7.457031 L 15.367188 6.65625 L 16.175781 6.65625 L 16.175781 7.457031 Z M 19.589844 20.15625 L 17.929688 20.15625 L 17.929688 19.308594 L 17.03125 19.308594 L 17.03125 21 L 16.222656 21 L 16.222656 19.308594 L 15.367188 19.308594 L 15.367188 18.507812 L 16.222656 18.507812 L 16.222656 17.660156 L 17.03125 17.660156 L 17.03125 18.507812 L 17.929688 18.507812 L 17.929688 17.617188 L 17.074219 17.617188 L 17.074219 15.96875 L 18.738281 15.96875 L 18.738281 17.660156 L 19.589844 17.660156 L 19.589844 18.460938 L 18.738281 18.460938 L 18.738281 19.351562 L 19.589844 19.351562 Z M 11.101562 13.429688 L 11.914062 13.429688 L 11.914062 14.230469 L 11.101562 14.230469 Z M 15.324219 17.660156 L 15.324219 18.460938 L 14.515625 18.460938 L 14.515625 17.660156 Z M 13.617188 15.121094 L 13.617188 16.769531 L 12.808594 16.769531 L 12.808594 15.121094 Z M 14.472656 16.8125 L 14.472656 17.617188 L 13.664062 17.617188 L 13.664062 16.8125 Z M 18.738281 21.847656 L 17.074219 21.847656 L 17.074219 21.046875 L 18.738281 21.046875 Z M 18.738281 15.078125 L 17.074219 15.078125 L 17.074219 14.273438 L 18.738281 14.273438 Z M 21.296875 20.15625 L 20.488281 20.15625 L 20.488281 19.351562 L 21.296875 19.351562 Z M 20.488281 17.660156 L 21.296875 17.660156 L 21.296875 18.460938 L 20.488281 18.460938 Z M 22.148438 17.617188 L 21.339844 17.617188 L 21.339844 16.8125 L 22.148438 16.8125 Z M 9.351562 14.230469 L 8.542969 14.230469 L 8.542969 13.429688 L 9.351562 13.429688 Z M 6.839844 15.074219 L 6.839844 13.429688 L 7.648438 13.429688 L 7.648438 14.273438 L 8.5 14.273438 L 8.5 15.921875 L 7.695312 15.921875 L 7.695312 15.074219 Z M 23.046875 14.230469 L 22.191406 14.230469 L 22.191406 13.429688 L 23.046875 13.429688 L 23.046875 12.539062 L 22.148438 12.539062 L 22.148438 13.382812 L 21.339844 13.382812 L 21.339844 12.539062 L 20.441406 12.539062 L 20.441406 13.429688 L 21.296875 13.429688 L 21.296875 14.230469 L 20.441406 14.230469 L 20.441406 15.121094 L 21.296875 15.121094 L 21.296875 16.769531 L 20.441406 16.769531 L 20.441406 17.617188 L 19.632812 17.617188 L 19.632812 15.921875 L 18.78125 15.921875 L 18.78125 15.121094 L 19.632812 15.121094 L 19.632812 14.230469 L 18.78125 14.230469 L 18.78125 13.429688 L 19.632812 13.429688 L 19.632812 12.539062 L 18.738281 12.539062 L 18.738281 13.382812 L 17.929688 13.382812 L 17.929688 12.539062 L 17.03125 12.539062 L 17.03125 13.382812 L 16.222656 13.382812 L 16.222656 12.539062 L 15.324219 12.539062 L 15.324219 14.273438 L 16.175781 14.273438 L 16.175781 15.078125 L 15.324219 15.078125 L 15.324219 15.96875 L 16.175781 15.96875 L 16.175781 17.617188 L 15.367188 17.617188 L 15.367188 16.769531 L 14.515625 16.769531 L 14.515625 14.230469 L 12.808594 14.230469 L 12.808594 13.429688 L 13.664062 13.429688 L 13.664062 12.582031 L 14.515625 12.582031 L 14.515625 11.691406 L 13.664062 11.691406 L 13.664062 10.042969 L 14.472656 10.042969 L 14.472656 10.890625 L 16.175781 10.890625 L 16.175781 11.734375 L 17.074219 11.734375 L 17.074219 10.84375 L 16.222656 10.84375 L 16.222656 10.042969 L 17.074219 10.042969 L 17.074219 6.613281 L 16.222656 6.613281 L 16.222656 5.765625 L 14.472656 5.765625 L 14.472656 6.613281 L 13.617188 6.613281 L 13.617188 7.503906 L 14.472656 7.503906 L 14.472656 8.304688 L 12.765625 8.304688 L 12.765625 9.195312 L 13.617188 9.195312 L 13.617188 10 L 12.765625 10 L 12.765625 11.734375 L 13.617188 11.734375 L 13.617188 12.539062 L 11.058594 12.539062 L 11.058594 13.382812 L 9.398438 13.382812 L 9.398438 12.539062 L 5.941406 12.539062 L 5.941406 15.121094 L 6.796875 15.121094 L 6.796875 15.964844 L 7.648438 15.964844 L 7.648438 16.8125 L 10.25 16.8125 L 10.25 15.121094 L 11.914062 15.121094 L 11.914062 15.921875 L 11.058594 15.921875 L 11.058594 16.8125 L 12.765625 16.8125 L 12.765625 18.507812 L 14.472656 18.507812 L 14.472656 20.152344 L 13.664062 20.152344 L 13.664062 19.308594 L 12.765625 19.308594 L 12.765625 20.199219 L 13.625 20.199219 L 13.625 21 L 12.765625 21 L 12.765625 23.585938 L 13.664062 23.585938 L 13.664062 21.042969 L 14.523438 21.042969 L 14.523438 20.199219 L 15.324219 20.199219 L 15.324219 21.046875 L 16.175781 21.046875 L 16.175781 21.847656 L 15.324219 21.847656 L 15.324219 22.695312 L 14.472656 22.695312 L 14.472656 23.585938 L 15.367188 23.585938 L 15.367188 22.738281 L 16.175781 22.738281 L 16.175781 23.585938 L 17.074219 23.585938 L 17.074219 22.738281 L 18.738281 22.738281 L 18.738281 23.585938 L 19.632812 23.585938 L 19.632812 22.695312 L 18.78125 22.695312 L 18.78125 21.890625 L 19.632812 21.890625 L 19.632812 20.199219 L 20.441406 20.199219 L 20.441406 21.046875 L 21.296875 21.046875 L 21.296875 22.738281 L 22.148438 22.738281 L 22.148438 23.585938 L 23.046875 23.585938 L 23.046875 22.695312 L 22.191406 22.695312 L 22.191406 21 L 21.339844 21 L 21.339844 20.199219 L 23.046875 20.199219 L 23.046875 19.308594 L 22.191406 19.308594 L 22.191406 18.507812 L 23.046875 18.507812 L 23.046875 16.769531 L 22.191406 16.769531 L 22.191406 15.96875 L 23.898438 15.96875 L 23.898438 15.078125 L 23.046875 15.078125 L 23.046875 14.230469 " fill-opacity="1" fill-rule="nonzero"/><path fill="#505adc" d="M 6.839844 22.695312 L 6.839844 18.507812 L 11.058594 18.507812 L 11.058594 22.695312 Z M 5.941406 23.585938 L 11.957031 23.585938 L 11.957031 17.617188 L 5.941406 17.617188 L 5.941406 23.585938 " fill-opacity="1" fill-rule="nonzero"/><g clip-path="url(#id1)"><path fill="#505adc" d="M 9.824219 24.480469 L 9.824219 25.324219 L 4.160156 25.324219 L 4.160156 24.480469 L 9.824219 24.480469 " fill-opacity="1" fill-rule="nonzero"/></g><g clip-path="url(#id2)"><path fill="#505adc" d="M 5.011719 25.324219 L 4.160156 25.324219 L 4.160156 19.746094 L 5.011719 19.746094 L 5.011719 25.324219 " fill-opacity="1" fill-rule="nonzero"/></g><g clip-path="url(#id3)"><path fill="#505adc" d="M 24.859375 19.746094 L 25.707031 19.746094 L 25.707031 25.324219 L 24.859375 25.324219 L 24.859375 19.746094 " fill-opacity="1" fill-rule="nonzero"/></g><g clip-path="url(#id4)"><path fill="#505adc" d="M 25.707031 24.480469 L 25.707031 25.324219 L 20.082031 25.324219 L 20.082031 24.480469 L 25.707031 24.480469 " fill-opacity="1" fill-rule="nonzero"/></g><g clip-path="url(#id5)"><path fill="#505adc" d="M 20.082031 4.847656 L 20.082031 3.945312 L 25.707031 3.945312 L 25.707031 4.847656 L 20.082031 4.847656 " fill-opacity="1" fill-rule="nonzero"/></g><g clip-path="url(#id6)"><path fill="#505adc" d="M 24.859375 3.945312 L 25.707031 3.945312 L 25.707031 9.566406 L 24.859375 9.566406 L 24.859375 3.945312 " fill-opacity="1" fill-rule="nonzero"/></g><g clip-path="url(#id7)"><path fill="#505adc" d="M 5.011719 9.566406 L 4.160156 9.566406 L 4.160156 3.945312 L 5.011719 3.945312 L 5.011719 9.566406 " fill-opacity="1" fill-rule="nonzero"/></g><g clip-path="url(#id8)"><path fill="#505adc" d="M 4.160156 4.847656 L 4.160156 3.945312 L 9.824219 3.945312 L 9.824219 4.847656 L 4.160156 4.847656 " fill-opacity="1" fill-rule="nonzero"/></g><g clip-path="url(#id9)"><path fill="#505adc" d="M 69.675781 22.878906 C 69.675781 22.988281 69.585938 23.078125 69.476562 23.078125 L 60.546875 23.078125 C 60.4375 23.078125 60.347656 22.988281 60.347656 22.878906 L 60.347656 6.019531 C 60.347656 5.910156 60.4375 5.824219 60.546875 5.824219 L 69.476562 5.824219 C 69.585938 5.824219 69.675781 5.910156 69.675781 6.019531 Z M 66.035156 24.074219 C 66.035156 24.265625 65.878906 24.417969 65.6875 24.417969 L 64.335938 24.417969 C 64.144531 24.417969 63.988281 24.265625 63.988281 24.074219 L 63.988281 24.066406 C 63.988281 23.878906 64.144531 23.722656 64.335938 23.722656 L 65.6875 23.722656 C 65.878906 23.722656 66.035156 23.878906 66.035156 24.066406 Z M 63.3125 4.804688 C 63.3125 4.65625 63.433594 4.539062 63.582031 4.539062 L 66.445312 4.539062 C 66.59375 4.539062 66.714844 4.65625 66.714844 4.804688 L 66.714844 4.808594 C 66.714844 4.957031 66.59375 5.078125 66.445312 5.078125 L 63.582031 5.078125 C 63.433594 5.078125 63.3125 4.957031 63.3125 4.808594 Z M 69.1875 3.808594 L 60.835938 3.808594 C 59.925781 3.808594 59.1875 4.542969 59.1875 5.445312 L 59.1875 23.453125 C 59.1875 24.355469 59.925781 25.089844 60.835938 25.089844 L 69.1875 25.089844 C 70.097656 25.089844 70.839844 24.355469 70.839844 23.453125 L 70.839844 5.445312 C 70.839844 4.542969 70.097656 3.808594 69.1875 3.808594 " fill-opacity="1" fill-rule="nonzero"/></g><g clip-path="url(#id10)"><path fill="#505adc" d="M 34.992188 8.640625 C 34.847656 10.511719 32.953125 10.679688 31.859375 10.566406 C 30.839844 10.464844 29.867188 10.019531 29.3125 9.613281 L 30.152344 8.242188 C 30.90625 9.09375 32.867188 9.386719 33.019531 8.65625 C 33.277344 7.46875 29.484375 8.101562 29.808594 5.464844 C 29.933594 4.480469 30.65625 3.542969 32.695312 3.65625 C 33.992188 3.734375 34.628906 4.1875 34.773438 4.300781 L 34.125 5.71875 C 33.515625 5.140625 31.808594 4.8125 31.648438 5.585938 C 31.429688 6.605469 35.164062 6.257812 34.992188 8.640625 " fill-opacity="1" fill-rule="nonzero"/></g><g clip-path="url(#id11)"><path fill="#505adc" d="M 40.914062 8.480469 L 41.8125 9.746094 C 41.144531 10.253906 40.410156 10.566406 39.554688 10.566406 C 37.390625 10.566406 35.761719 9.027344 35.761719 7.117188 C 35.761719 5.207031 37.390625 3.65625 39.554688 3.65625 C 40.410156 3.65625 41.144531 3.96875 41.8125 4.488281 L 40.914062 5.746094 C 40.507812 5.445312 40.050781 5.285156 39.554688 5.285156 C 38.410156 5.285156 37.542969 6.085938 37.542969 7.117188 C 37.542969 8.136719 38.410156 8.949219 39.554688 8.949219 C 40.050781 8.949219 40.507812 8.773438 40.914062 8.480469 " fill-opacity="1" fill-rule="nonzero"/></g><g clip-path="url(#id12)"><path fill="#505adc" d="M 46.316406 7.722656 L 45.800781 6.265625 L 45.289062 7.722656 Z M 46.859375 9.253906 L 44.746094 9.253906 L 44.335938 10.425781 L 42.308594 10.425781 L 44.820312 3.808594 L 46.773438 3.808594 L 49.296875 10.425781 L 47.269531 10.425781 L 46.859375 9.253906 " fill-opacity="1" fill-rule="nonzero"/></g><g clip-path="url(#id13)"><path fill="#505adc" d="M 51.792969 3.808594 L 54.109375 7.316406 L 54.109375 3.808594 L 55.9375 3.808594 L 55.9375 10.425781 L 54.316406 10.425781 L 52.003906 6.910156 L 52.003906 10.425781 L 50.175781 10.425781 L 50.175781 3.808594 L 51.792969 3.808594 " fill-opacity="1" fill-rule="nonzero"/></g><g clip-path="url(#id14)"><path fill="#505adc" d="M 43.925781 12.582031 L 43.925781 25.171875 L 40.464844 25.171875 L 40.464844 18.355469 L 37.382812 22.1875 L 35.859375 22.1875 L 32.777344 18.355469 L 32.777344 25.171875 L 29.3125 25.171875 L 29.3125 12.582031 L 32.398438 12.582031 L 36.621094 18.140625 L 40.84375 12.582031 L 43.925781 12.582031 " fill-opacity="1" fill-rule="nonzero"/></g><g clip-path="url(#id15)"><path fill="#505adc" d="M 56.308594 22.257812 L 56.308594 25.171875 L 46.824219 25.171875 L 46.824219 12.582031 L 56 12.582031 L 56 15.496094 L 50.289062 15.496094 L 50.289062 17.421875 L 55.4375 17.421875 L 55.4375 20.335938 L 50.289062 20.335938 L 50.289062 22.257812 L 56.308594 22.257812 " fill-opacity="1" fill-rule="nonzero"/></g></svg>